<svg width="96" height="95" viewBox="0 0 96 95" fill="none" xmlns="http://www.w3.org/2000/svg">
<path d="M18.731 68.0833L18.7343 68.0833L85.7199 68.0833H85.721V67.3333C85.8576 67.3335 85.9891 67.282 86.0884 67.1892C86.1877 67.0964 86.2472 66.9696 86.2548 66.8347L18.731 68.0833ZM18.731 68.0833C18.4309 68.082 18.1398 67.976 17.909 67.7822L18.3913 67.2079L17.9089 67.7822C17.678 67.5883 17.5222 67.3186 17.4711 67.0197L17.471 67.0197L17.4692 67.0078L10.2439 20.2291C10.2121 20.0459 10.2218 19.8579 10.2723 19.6788C10.3231 19.4989 10.4136 19.3332 10.5367 19.1934C10.6565 19.054 10.805 18.9426 10.9716 18.8662L11.2841 19.548L18.731 68.0833ZM88.3604 18.8559C88.5157 18.9227 88.6566 19.0195 88.7749 19.1408L11.5078 18.75H11.5097H87.8563V18.7499L87.8697 18.7501C88.0384 18.7531 88.2051 18.7889 88.3604 18.8559ZM12.9955 21.2571L19.8321 65.498H84.5002L86.5177 21.2571H12.9955Z" fill="white" stroke="white" stroke-width="1.5"/>
<path d="M21.0526 79.7438L21.058 79.7439L93.2098 79.7438C93.3904 79.7608 93.5728 79.7426 93.7468 79.6901C93.9403 79.6316 94.1187 79.5321 94.2701 79.3987L21.0526 79.7438ZM21.0526 79.7438C20.0366 79.7365 19.058 79.3615 18.2941 78.6885C17.5312 78.0166 17.0331 77.0923 16.8876 76.0837C16.8875 76.0825 16.8873 76.0813 16.8871 76.0802L6.14857 4.08129H2.65887C2.28278 4.08129 1.92361 3.93032 1.65996 3.66396L2.19299 3.13635L1.65993 3.66395C1.39659 3.39788 1.25 3.0386 1.25 2.66563C1.25 2.2926 1.39662 1.93338 1.65993 1.66734L1.65996 1.66733C1.92361 1.40097 2.28278 1.25 2.65887 1.25H7.35629H7.36497L7.37366 1.2502C7.70673 1.25792 8.02552 1.38291 8.27522 1.60187C8.52478 1.82069 8.68957 2.11939 8.74306 2.4457L8.74313 2.44569L8.74473 2.45638L19.6646 75.6659L19.6647 75.666C19.7164 76.013 19.8876 76.3289 20.146 76.5587C20.4025 76.7867 20.7286 76.9156 21.0673 76.9249H93.2098C93.3905 76.9079 93.5728 76.9261 93.7469 76.9787C93.9405 77.0372 94.1188 77.1367 94.2701 77.2701L21.0526 79.7438Z" fill="white" stroke="white" stroke-width="1.5"/>
<path d="M81.9642 93.9996L81.9678 93.9996C82.9852 94.0099 83.9926 93.8013 84.9264 93.3881C85.8602 92.9749 86.6991 92.3668 87.3919 91.6042C88.0847 90.8416 88.6168 89.9408 88.9572 88.959C89.2977 87.9772 89.4396 86.934 89.3751 85.8941L89.375 85.893C89.2416 83.7821 88.3483 81.7936 86.8623 80.3274C85.3752 78.8602 83.4034 78.0248 81.3389 78.0004L81.3372 78.0004C80.3214 77.9901 79.3156 78.1984 78.3832 78.611C77.4509 79.0235 76.6134 79.6307 75.9216 80.3922C75.23 81.1536 74.6987 82.0531 74.3589 83.0334C74.0191 84.0136 73.8775 85.0551 73.942 86.0933L81.9642 93.9996ZM81.9642 93.9996C79.9 93.9714 77.9297 93.1324 76.4452 91.6626C74.962 90.194 74.0721 88.2042 73.942 86.0935L81.9642 93.9996ZM81.3144 81.3437L81.3122 81.3436C80.7597 81.3354 80.2104 81.4466 79.6988 81.6715C79.187 81.8965 78.7225 82.2311 78.3361 82.6565C77.9497 83.0819 77.65 83.5888 77.4584 84.146C77.2667 84.7033 77.1877 85.2971 77.2273 85.8894L77.2277 85.8947C77.3069 87.1833 77.8501 88.3852 78.7371 89.2629C79.6229 90.1394 80.7857 90.6282 81.9908 90.6438L81.9908 90.6438L81.9954 90.6439C82.5486 90.6535 83.0989 90.5434 83.6117 90.319C84.1246 90.0947 84.5903 89.7603 84.9777 89.3348C85.3652 88.9092 85.6657 88.4018 85.858 87.8439C86.0502 87.286 86.1294 86.6913 86.0897 86.0981L86.0895 86.0947C86.0077 84.8046 85.4623 83.6022 84.5733 82.7244C83.6855 81.8478 82.521 81.3591 81.3144 81.3437Z" fill="white" stroke="white" stroke-width="2"/>
<path d="M32.6156 93.9998L32.6102 93.9997C30.5449 93.9717 28.5733 93.1335 27.0868 91.6642C25.6014 90.1961 24.7086 88.2062 24.5754 86.0944L24.5753 86.0916C24.5127 85.0528 24.6561 84.0112 24.9975 83.0311C25.3388 82.051 25.8713 81.1519 26.5639 80.3909C27.2566 79.6298 28.0948 79.0231 29.0276 78.6108C29.9605 78.1985 30.9667 77.9902 31.9829 78.0004L31.9832 78.0004C34.0482 78.0216 36.0212 78.8568 37.5074 80.3256C38.9923 81.7931 39.882 83.7839 40.0093 85.8951C40.0736 86.9335 39.932 87.9752 39.5925 88.9557C39.2529 89.9365 38.722 90.8367 38.0307 91.599C37.3393 92.3614 36.5021 92.9698 35.57 93.3838C34.6377 93.7979 33.6319 94.008 32.6156 93.9998ZM31.962 81.3437V81.3437L31.9554 81.3436C31.4021 81.3339 30.8518 81.4441 30.339 81.6684C29.826 81.8928 29.3604 82.2272 28.9729 82.6527C28.5854 83.0783 28.2848 83.5857 28.0926 84.1436C27.9003 84.7015 27.8211 85.2962 27.8608 85.8894L27.861 85.8929C27.9428 87.1829 28.4883 88.3854 29.3773 89.2631C30.2652 90.1398 31.4297 90.6285 32.6365 90.6439L32.6387 90.6439C33.1912 90.6522 33.7405 90.541 34.2522 90.316C34.7641 90.091 35.2286 89.7565 35.615 89.3311C36.0015 88.9056 36.3011 88.3987 36.4928 87.8415C36.6845 87.2843 36.7635 86.6904 36.7239 86.0982L36.7238 86.0982L36.7234 86.091C36.6465 84.802 36.1042 83.5991 35.217 82.7213C34.331 81.8446 33.1673 81.3569 31.962 81.3437Z" fill="white" stroke="white" stroke-width="2"/>
</svg>
