<svg width="88" height="92" viewBox="0 0 88 92" fill="none" xmlns="http://www.w3.org/2000/svg">
<g clip-path="url(#clip0_0_16616)">
<path d="M47.0408 6.35858H40.9586C40.1715 6.35858 39.5331 7.02576 39.5331 7.84891C39.5331 8.67188 40.1713 9.33924 40.9586 9.33924H47.0408C47.828 9.33924 48.4663 8.67206 48.4663 7.84891C48.4663 7.02576 47.8281 6.35858 47.0408 6.35858Z" fill="white"/>
<path d="M34.8918 6.35858H34.8767C34.0895 6.35858 33.4587 7.02576 33.4587 7.84891C33.4587 8.67188 34.1046 9.33924 34.8918 9.33924C35.679 9.33924 36.3173 8.67206 36.3173 7.84891C36.3173 7.02576 35.6792 6.35858 34.8918 6.35858Z" fill="white"/>
<path d="M63.7665 42.9202C62.9793 42.9202 62.3409 43.5873 62.3409 44.4105V76.3025H25.6585V44.4103C25.6585 43.5873 25.0203 42.92 24.233 42.92C23.4458 42.92 22.8074 43.5872 22.8074 44.4103V77.7927C22.8074 78.6156 23.4456 79.283 24.233 79.283H63.7665C64.5536 79.283 65.192 78.6158 65.192 77.7927V44.4103C65.192 43.5873 64.5538 42.9202 63.7665 42.9202Z" fill="white"/>
<path d="M47.0408 82.6609H40.9586C40.1715 82.6609 39.5331 83.3281 39.5331 84.1513C39.5331 84.9742 40.1713 85.6416 40.9586 85.6416H47.0408C47.828 85.6416 48.4663 84.9744 48.4663 84.1513C48.4663 83.3281 47.8281 82.6609 47.0408 82.6609Z" fill="white"/>
<path d="M76.995 27.5251L76.9962 27.524L71.2741 20.7942V6.25923C71.2741 2.80798 68.5882 0 65.287 0H22.7126C19.4114 0 16.7255 2.80798 16.7255 6.25923V20.7943L11.0036 27.5242L11.0048 27.5253C10.7808 27.7885 10.6437 28.134 10.6437 28.5142V33.2832C10.6437 36.7344 13.3296 39.5424 16.6308 39.5424C16.6627 39.5424 16.694 39.5402 16.7258 39.5395V85.7409C16.7258 89.1922 19.4117 92.0002 22.7129 92.0002H65.2874C68.5886 92.0002 71.2745 89.1922 71.2745 85.7409V39.5393C71.3063 39.5399 71.3376 39.5422 71.3695 39.5422C74.6707 39.5422 77.3566 36.7342 77.3566 33.283V28.5141C77.3561 28.1339 77.2189 27.7883 76.995 27.5251ZM72.7564 27.0237H67.591L60.7126 15.6977H63.1264L72.7564 27.0237ZM49.9869 30.0044H56.259V33.283C56.259 35.0908 54.8522 36.5616 53.1229 36.5616C51.3937 36.5616 49.9869 35.0908 49.9869 33.283V30.0044ZM49.8173 27.0237L48.4416 15.6977H51.4889L55.616 27.0237H49.8173ZM54.5399 15.6977H57.3356L64.214 27.0237H58.6669L54.5399 15.6977ZM59.1099 30.0044H65.3819V33.283C65.3819 35.0908 63.9751 36.5616 62.2459 36.5616C60.5166 36.5616 59.1099 35.0908 59.1099 33.283V30.0044ZM19.5765 6.25923C19.5765 4.4514 20.9833 2.98066 22.7126 2.98066H65.287C67.0163 2.98066 68.4231 4.4514 68.4231 6.25923V17.4412L64.8317 13.2175C64.5612 12.899 64.1736 12.7172 63.7665 12.7172H24.233C23.8258 12.7172 23.4381 12.8992 23.1677 13.2175L19.5765 17.441V6.25923ZM47.1358 30.0044V33.283C47.1358 35.0908 45.729 36.5616 43.9998 36.5616C42.2706 36.5616 40.8638 35.0908 40.8638 33.283V30.0044H47.1358ZM41.0563 27.0237L42.432 15.6977H45.5676L46.9433 27.0237H41.0563ZM23.7856 27.0237L30.664 15.6977H33.4597L29.3327 27.0237H23.7856ZM28.8896 30.0044V33.283C28.8896 35.0908 27.4828 36.5616 25.7536 36.5616C24.0243 36.5616 22.6175 35.0908 22.6175 33.283V30.0044H28.8896ZM31.7406 30.0044H38.0127V33.283C38.0127 35.0908 36.6059 36.5616 34.8767 36.5616C33.1474 36.5616 31.7406 35.0908 31.7406 33.283V30.0044ZM32.3836 27.0237L36.5107 15.6977H39.558L38.1824 27.0237H32.3836ZM24.8732 15.6977H27.287L20.4086 27.0237H15.2432L24.8732 15.6977ZM16.6304 36.5616C14.9012 36.5616 13.4944 35.0908 13.4944 33.283V30.0044H19.7665V33.283C19.7665 35.0908 18.3597 36.5616 16.6304 36.5616ZM68.4231 85.7408C68.4231 87.5486 67.0163 89.0193 65.287 89.0193H22.7126C20.9833 89.0193 19.5765 87.5486 19.5765 85.7408V38.7282C20.1903 38.364 20.7377 37.8912 21.1922 37.3328C22.2911 38.6837 23.9284 39.5422 25.7537 39.5422C27.579 39.5422 29.2163 38.6838 30.3153 37.3328C31.4143 38.6837 33.0515 39.5422 34.8769 39.5422C36.7022 39.5422 38.3394 38.6838 39.4384 37.3328C40.5374 38.6837 42.1747 39.5422 44 39.5422C45.8253 39.5422 47.4626 38.6838 48.5615 37.3328C49.6605 38.6837 51.2976 39.5422 53.1231 39.5422C54.9486 39.5422 56.5857 38.6838 57.6847 37.3328C58.7836 38.6837 60.4209 39.5422 62.2462 39.5422C64.0715 39.5422 65.7088 38.6838 66.8078 37.3328C67.2622 37.8912 67.8097 38.3638 68.4234 38.7282V85.7408H68.4231ZM74.5052 33.283C74.5052 35.0908 73.0984 36.5616 71.3692 36.5616C69.6399 36.5616 68.2332 35.0908 68.2332 33.283V30.0044H74.5052V33.283Z" fill="white"/>
</g>
<defs>
<clipPath id="clip0_0_16616">
<rect width="88" height="92" fill="white"/>
</clipPath>
</defs>
</svg>
