<svg width="99" height="101" viewBox="0 0 99 101" fill="none" xmlns="http://www.w3.org/2000/svg">
<g clip-path="url(#clip0_0_16596)">
<path d="M13.24 96.9972C13.7869 96.9972 14.23 96.5452 14.23 95.9872V67.5991C14.23 67.0411 13.7869 66.5891 13.24 66.5891H5.32C5.18998 66.5891 5.06123 66.6152 4.94111 66.6659C4.82099 66.7167 4.71184 66.7911 4.6199 66.8848C4.52797 66.9786 4.45505 67.09 4.4053 67.2125C4.35556 67.3351 4.32997 67.4664 4.33 67.5991V95.9872C4.33 96.5452 4.77308 96.9972 5.32 96.9972H13.24ZM13.24 101.037H5.32C2.58609 101.037 0.369996 98.7763 0.369996 95.9872V67.5991C0.369996 64.8099 2.58609 62.5491 5.32 62.5491H13.24C15.9739 62.5491 18.19 64.8099 18.19 67.5991V95.9872C18.19 98.7763 15.9739 101.037 13.24 101.037ZM40.157 96.9972C40.7039 96.9972 41.147 96.5452 41.147 95.9872V61.737C41.147 61.1791 40.7039 60.727 40.157 60.727H32.237C32.107 60.727 31.9782 60.7531 31.8581 60.8039C31.738 60.8546 31.6288 60.929 31.5369 61.0228C31.4449 61.1166 31.372 61.228 31.3223 61.3505C31.2725 61.4731 31.2469 61.6044 31.247 61.737V95.9872C31.247 96.5452 31.6901 96.9972 32.237 96.9972H40.157ZM40.157 101.037H32.237C29.5031 101.037 27.287 98.7763 27.287 95.9872V61.737C27.287 58.9479 29.5031 56.687 32.237 56.687H40.157C42.8909 56.687 45.107 58.9479 45.107 61.737V95.9872C45.107 98.7763 42.8909 101.037 40.157 101.037ZM67.074 97.0581C67.6209 97.0581 68.0639 96.6061 68.0639 96.0481V55.935C68.0639 55.3776 67.6204 54.925 67.074 54.925H59.154C58.6075 54.925 58.164 55.3776 58.164 55.935V96.0481C58.164 96.6061 58.607 97.0581 59.154 97.0581H67.074ZM67.074 101.098H59.154C56.42 101.098 54.204 98.8373 54.204 96.0481V55.935C54.204 53.1465 56.4202 50.885 59.154 50.885H67.074C69.8077 50.885 72.024 53.1465 72.024 55.935V96.0481C72.024 98.8373 69.8079 101.098 67.074 101.098ZM93.9909 97.0583C94.5378 97.0583 94.9809 96.6063 94.9809 96.0483V50.8852C94.9809 50.3272 94.5378 49.8752 93.9909 49.8752H86.0709C85.9409 49.8751 85.8122 49.9012 85.692 49.952C85.5719 50.0027 85.4628 50.0771 85.3708 50.1709C85.2789 50.2647 85.206 50.3761 85.1562 50.4986C85.1065 50.6212 85.0809 50.7525 85.0809 50.8852V96.0483C85.0809 96.6063 85.524 97.0583 86.0709 97.0583H93.9909ZM93.9909 101.098H86.0709C83.337 101.098 81.1209 98.8375 81.1209 96.0483V50.8852C81.1209 48.096 83.337 45.8352 86.0709 45.8352H93.9909C96.7248 45.8352 98.9409 48.096 98.9409 50.8852V96.0483C98.9409 98.8375 96.7248 101.098 93.9909 101.098ZM93.391 18.0592C65.4887 34.0968 34.3471 43.5579 1.86051 45.5626C0.768993 45.63 -0.0623557 46.5873 0.00367652 47.7009C0.0697088 48.8145 1.00808 49.6626 2.0996 49.5952C35.1888 47.5533 66.9127 37.9152 95.3348 21.579C96.2875 21.0314 96.6247 19.7996 96.0879 18.8275C95.5511 17.8555 94.3438 17.5116 93.391 18.0592Z" fill="white"/>
<path d="M87.1286 18.4686L97.0276 18.4838C98.1212 18.4855 99.009 17.5825 99.0106 16.4668C99.0123 15.3512 98.1272 14.4455 97.0336 14.4438L87.1346 14.4286C86.0411 14.4269 85.1533 15.3299 85.1516 16.4455C85.15 17.5612 86.0351 18.4669 87.1286 18.4686Z" fill="white"/>
<path d="M95.0506 16.4576L95.021 26.501C95.0177 27.6167 95.9014 28.5238 96.995 28.5272C98.0885 28.5305 98.9777 27.6289 98.981 26.5133L99.0106 16.4698C99.0139 15.3542 98.1302 14.447 97.0366 14.4437C95.9431 14.4403 95.0539 15.3419 95.0506 16.4576Z" fill="white"/>
</g>
<defs>
<clipPath id="clip0_0_16596">
<rect width="99" height="101" fill="white"/>
</clipPath>
</defs>
</svg>
