<svg xmlns="http://www.w3.org/2000/svg" xmlns:xlink="http://www.w3.org/1999/xlink" width="88.521" height="21.168" viewBox="0 0 88.521 21.168">
  <defs>
    <linearGradient id="linear-gradient" x1="0.5" x2="0.5" y2="1" gradientUnits="objectBoundingBox">
      <stop offset="0" stop-color="#680a43"/>
      <stop offset="1" stop-color="#efa5ab"/>
    </linearGradient>
  </defs>
  <g id="Group_100424" data-name="Group 100424" transform="translate(-8642.993 226.992)">
    <path id="Path_158751" d="M18.805,14.672v2.376a1.914,1.914,0,0,1-.93,1.756,12.434,12.434,0,0,1-5.269,2.17A10.719,10.719,0,0,1,4.03,18.908,10.51,10.51,0,0,1,.1,12.089,10.232,10.232,0,0,1,1.86,4.547,9.815,9.815,0,0,1,8.68.207,10.993,10.993,0,0,1,15.912,1.24a5.69,5.69,0,0,1,1.446.93,1.959,1.959,0,0,1,.413,2.686c0,.1-.1.1-.1.207a1.554,1.554,0,0,1-1.86.31c-.723-.207-1.343-.62-1.963-.827a7.7,7.7,0,0,0-5.269-.31A6.282,6.282,0,0,0,3.927,9.609a6.688,6.688,0,0,0,5.166,7.542,9.3,9.3,0,0,0,5.063-.517,1.219,1.219,0,0,0,.93-1.446h0a28.965,28.965,0,0,1,0-3,1.893,1.893,0,0,1,1.446-1.86,1.941,1.941,0,0,1,2.17,1.033,3.017,3.017,0,0,1,.207.93c0,.827-.1,1.653-.1,2.376Z" transform="translate(8643.021 -226.987)" fill="url(#linear-gradient)"/>
    <path id="Path_158752" d="M70.5,10.52V2.565A1.892,1.892,0,0,1,71.74.7a.931.931,0,0,1,.517-.1c2.376,0,4.856-.1,7.232,0a5.913,5.913,0,0,1,5.786,5.786,6.867,6.867,0,0,1-.62,3.513,5.375,5.375,0,0,1-2.066,2.48c-.207.207-.31.31-.1.517a1.667,1.667,0,0,1,.31.93,1.7,1.7,0,0,1-1.24,1.86,1.819,1.819,0,0,1-2.17-.723,6.949,6.949,0,0,1-.723-1.137.554.554,0,0,0-.413-.31h-3.62c-.31,0-.31.1-.31.31v4.649a1.858,1.858,0,0,1-1.756,1.963,1.824,1.824,0,0,1-1.963-1.55c0-.207-.1-.517-.1-.723V10.519Zm3.823-3.306V9.9a.274.274,0,0,0,.31.31h3.926a2.512,2.512,0,0,0,2.48-1.343A3.231,3.231,0,0,0,81.452,6.9a2.639,2.639,0,0,0-2.376-2.79H74.633c-.31,0-.31.1-.31.31V7.21Z" transform="translate(8645.361 -226.968)" fill="url(#linear-gradient)"/>
    <path id="Path_158753" d="M35,10.522V2.463A2.015,2.015,0,0,1,36.86.5h9.609a1.985,1.985,0,0,1,1.86,1.55,1.921,1.921,0,0,1-1.343,2.17c-.207,0-.413.1-.723.1H39.236c-.207,0-.413.1-.413.31V18.581A1.927,1.927,0,0,1,35,18.994Z" transform="translate(8644.184 -226.97)" fill="url(#linear-gradient)"/>
    <path id="Path_158754" d="M60.516,10.625v8.059a1.912,1.912,0,0,1-3.823.1h0V4.736c0-.207-.1-.413-.31-.413H52.56A1.732,1.732,0,0,1,50.907,3.29a1.716,1.716,0,0,1,.207-1.963A2.207,2.207,0,0,1,52.87.5h5.373a3.515,3.515,0,0,1,1.033.1,1.768,1.768,0,0,1,1.24,1.86c.1,2.79.1,5.476,0,8.162Z" transform="translate(8644.705 -226.97)" fill="url(#linear-gradient)"/>
    <path id="Path_158755" d="M28.323,13.039v5.476a1.912,1.912,0,1,1-3.823.1V7.563A1.943,1.943,0,0,1,26.36,5.6a1.792,1.792,0,0,1,1.86,1.446c0,.207.1.413.1.62Z" transform="translate(8643.834 -226.801)" fill="url(#linear-gradient)"/>
    <path id="Path_158756" d="M28.323,3.56a1.912,1.912,0,0,1-3.823.1v-.1A1.943,1.943,0,0,1,26.463,1.7a1.852,1.852,0,0,1,1.86,1.86Z" transform="translate(8643.834 -227.933)" fill="#efa5ab"/>
    <path id="Path_158757" d="M12.563,10a1.852,1.852,0,0,1,1.86,1.86h0a1.912,1.912,0,1,1-3.823.1v-.1A1.877,1.877,0,0,1,12.563,10Z" transform="translate(8642.37 -226.655)" fill="#efa5ab"/>
    <path id="Path_158758" d="M40.963,8.9a1.852,1.852,0,0,1,1.86,1.86h0a1.818,1.818,0,0,1-1.963,1.86A1.943,1.943,0,0,1,39,10.656,2.007,2.007,0,0,1,40.963,8.9Z" transform="translate(8645.318 -226.691)" fill="#efa5ab"/>
    <path id="Path_158759" d="M62.46,4.323a1.852,1.852,0,0,1-1.86-1.86v-.1A1.877,1.877,0,0,1,62.563.5h0a1.852,1.852,0,0,1,1.86,1.86A1.962,1.962,0,0,1,62.46,4.323Z" transform="translate(8646.036 -226.97)" fill="#efa5ab"/>
    <path id="Path_158760" d="M82.86,18.723A1.877,1.877,0,0,1,81,16.76a1.912,1.912,0,0,1,3.823.1,1.875,1.875,0,0,1-1.963,1.86Z" transform="translate(8646.689 -224.86)" fill="#efa5ab"/>
  </g>
</svg>
