<svg width="26" height="26" viewBox="0 0 26 26" fill="none" xmlns="http://www.w3.org/2000/svg">
<path d="M10.696 10.2022H8.34899V12.0778H10.5504C10.9313 12.0778 11.2668 11.951 11.2668 11.076C11.2668 10.2022 10.696 10.2022 10.696 10.2022Z" fill="#15BFFD"/>
<path d="M8.34899 15.6191H10.577C10.9112 15.612 11.5464 15.5099 11.5464 14.5269C11.5464 13.3612 10.696 13.3729 10.696 13.3729H8.34899V15.6191Z" fill="#15BFFD"/>
<path d="M15.2873 13.3729H17.9359C17.9359 13.3729 17.9515 12.0778 16.7059 12.0778C15.4602 12.0778 15.2873 13.3729 15.2873 13.3729Z" fill="#15BFFD"/>
<path fill-rule="evenodd" clip-rule="evenodd" d="M13 26C20.1797 26 26 20.1797 26 13C26 5.8203 20.1797 0 13 0C5.8203 0 0 5.8203 0 13C0 20.1797 5.8203 26 13 26ZM12.978 10.9466C12.978 12.4497 11.7479 12.5453 11.7479 12.5453C13.3369 12.5453 13.2613 14.5489 13.2583 14.6297L13.2582 14.6322C13.2582 17.197 10.696 17.1131 10.696 17.1131H6.5V8.70946H10.696C11.9716 8.70946 12.978 9.44151 12.978 10.9466ZM13.5748 14.0757C13.5748 14.0757 13.5722 10.8465 16.674 10.8465C19.9383 10.8465 19.4774 14.495 19.4774 14.495H15.3016C15.3016 16.0567 16.7215 15.9578 16.7215 15.9578C18.0607 15.9578 18.0139 15.0535 18.0139 15.0535H19.4325C19.4325 17.4532 16.674 17.288 16.674 17.288C13.3628 17.288 13.5748 14.0757 13.5748 14.0757ZM14.9388 9.20291H18.2655V10.2392H14.9388V9.20291Z" fill="#15BFFD"/>
</svg>
