<svg width="18" height="18" viewBox="0 0 18 18" fill="none" xmlns="http://www.w3.org/2000/svg">
<path d="M8.99991 10.6276C7.40241 10.6276 6.09741 9.33008 6.09741 7.72508C6.09741 6.12008 7.40241 4.83008 8.99991 4.83008C10.5974 4.83008 11.9024 6.12758 11.9024 7.73258C11.9024 9.33758 10.5974 10.6276 8.99991 10.6276ZM8.99991 5.95508C8.02491 5.95508 7.22241 6.75008 7.22241 7.73258C7.22241 8.71508 8.01741 9.51008 8.99991 9.51008C9.98241 9.51008 10.7774 8.71508 10.7774 7.73258C10.7774 6.75008 9.97491 5.95508 8.99991 5.95508Z" fill="white"/>
<path d="M9.00001 17.07C7.89001 17.07 6.77251 16.65 5.90251 15.8175C3.69001 13.6875 1.24501 10.29 2.16751 6.2475C3.00001 2.58 6.20251 0.9375 9.00001 0.9375C9.00001 0.9375 9.00001 0.9375 9.00751 0.9375C11.805 0.9375 15.0075 2.58 15.84 6.255C16.755 10.2975 14.31 13.6875 12.0975 15.8175C11.2275 16.65 10.11 17.07 9.00001 17.07ZM9.00001 2.0625C6.81751 2.0625 4.01251 3.225 3.27001 6.495C2.46001 10.0275 4.68001 13.0725 6.69001 15C7.98751 16.2525 10.02 16.2525 11.3175 15C13.32 13.0725 15.54 10.0275 14.745 6.495C13.995 3.225 11.1825 2.0625 9.00001 2.0625Z" fill="white"/>
</svg>
