<svg width="26" height="26" viewBox="0 0 26 26" fill="none" xmlns="http://www.w3.org/2000/svg">
<g clip-path="url(#clip0_1_10550)">
<path d="M13.0005 0.52002C6.10791 0.52002 0.520508 6.10742 0.520508 13C0.520508 19.8926 6.10791 25.48 13.0005 25.48C19.8931 25.48 25.4805 19.8926 25.4805 13C25.4805 6.10742 19.8931 0.52002 13.0005 0.52002ZM18.077 10.7432C18.0822 10.8498 18.0835 10.9564 18.0835 11.0604C18.0835 14.3104 15.6122 18.0557 11.0908 18.0557C9.75479 18.0579 8.44656 17.6742 7.32341 16.9507C7.51451 16.9741 7.71081 16.9832 7.90971 16.9832C9.06151 16.9832 10.121 16.5919 10.9621 15.9315C10.4495 15.9215 9.95288 15.7517 9.54135 15.446C9.12982 15.1403 8.82393 14.7138 8.66631 14.2259C9.03441 14.2959 9.41361 14.2812 9.77521 14.183C9.21887 14.0705 8.71856 13.7691 8.35913 13.3298C7.99969 12.8905 7.80325 12.3404 7.80311 11.7728V11.7429C8.13461 11.9262 8.51421 12.038 8.91721 12.051C8.39565 11.7038 8.02643 11.1705 7.88507 10.5601C7.7437 9.94969 7.84087 9.30835 8.15671 8.76722C8.77415 9.52642 9.54415 10.1475 10.4168 10.5902C11.2895 11.033 12.2455 11.2875 13.2228 11.3373C13.0986 10.8099 13.152 10.2562 13.3749 9.76237C13.5978 9.2685 13.9776 8.86211 14.4553 8.60636C14.933 8.35062 15.4818 8.25986 16.0164 8.34819C16.551 8.43653 17.0414 8.699 17.4114 9.09482C17.9615 8.98598 18.4891 8.78419 18.9714 8.49812C18.7881 9.06769 18.4042 9.55135 17.8911 9.85922C18.3784 9.80053 18.8542 9.66952 19.3029 9.47052C18.9733 9.96438 18.5582 10.3954 18.077 10.7432Z" fill="#15BFFD"/>
</g>
<defs>
<clipPath id="clip0_1_10550">
<rect width="26" height="26" fill="white"/>
</clipPath>
</defs>
</svg>
